# Blender 3.3.1
# www.blender.org
mtllib connector.mtl
o Cube
v 3.000000 1.000000 -1.000000
v 3.000000 -1.000000 -1.000000
v -3.000000 1.000000 -1.000000
v -3.000000 -1.000000 -1.000000
v 2.675339 -1.000000 -1.000000
v -2.675339 -1.000000 -1.000000
v -2.675339 1.000000 -1.000000
v 2.675339 1.000000 -1.000000
v 2.675339 -1.000000 -0.792674
v -2.675339 -1.000000 -0.792674
v -2.675339 0.895629 -0.792674
v 2.675339 0.895629 -0.792674
v 2.394877 -0.900638 -0.792674
v -2.394877 -0.900638 -0.792674
v -2.394877 0.796268 -0.792674
v 2.394877 0.796268 -0.792674
v 0.000000 -1.000000 -0.792674
v 0.000000 0.895629 -0.792674
v 0.000000 -0.900638 -0.792674
v 0.000000 0.796268 -0.792674
v -1.337670 -1.000000 -0.792674
v -1.197438 -0.900638 -0.792674
v -1.337670 0.895629 -0.792674
v -1.197438 0.796268 -0.792674
v 1.337670 0.895629 -0.792674
v 1.197438 0.796268 -0.792674
v 1.337670 -1.000000 -0.792674
v 1.197438 -0.900638 -0.792674
v -3.000000 -1.000000 0.000000
v 3.000000 1.000000 0.000000
v -3.000000 1.000000 0.000000
v 3.000000 -1.000000 0.000000
v -2.675339 -1.000000 0.000000
v 2.675339 -1.000000 0.000000
v 2.675339 1.000000 0.000000
v -2.675339 1.000000 0.000000
v -2.675339 -1.000000 0.000000
v 2.675339 -1.000000 0.000000
v 2.675339 0.959431 0.000000
v -2.675339 0.959431 0.000000
v 0.000000 0.959431 0.000000
v 0.000000 -1.000000 0.000000
v -1.337670 -1.000000 0.000000
v -1.337670 0.959431 0.000000
v 1.337670 0.959431 0.000000
v 1.337670 -1.000000 0.000000
v -1.197438 -0.900638 -0.615539
v -2.394877 -0.900638 -0.615539
v -2.394877 0.796268 -0.615539
v 2.394877 0.796268 -0.615539
v 2.394877 -0.900638 -0.615539
v 1.197438 -0.900638 -0.615539
v 0.000000 -0.900638 -0.615539
v 0.000000 0.796268 -0.615539
v 1.337670 0.895629 -0.979619
v 2.675339 0.895629 -0.979619
v 1.197438 0.796268 -0.979619
v 2.394877 0.796268 -0.979619
v -2.394877 0.796268 -0.979619
v -2.675339 0.895629 -0.979619
v -1.337670 0.895629 -0.979619
v 0.000000 0.895629 -0.979619
v -1.197438 0.796268 -0.979619
v 0.000000 0.796268 -0.979619
v -3.000000 1.000000 -0.500000
v 3.000000 -1.000000 -0.500000
v -3.000000 -1.000000 -0.500000
v 3.000000 1.000000 -0.500000
v -2.675339 -1.000000 -0.500000
v 2.675339 -1.000000 -0.500000
v 2.675339 1.000000 -0.500000
v -2.675339 1.000000 -0.500000
v -2.675339 -1.000000 -0.396337
v 2.675339 -1.000000 -0.396337
v 2.675339 0.959431 -0.396337
v -2.675339 0.959431 -0.396337
v 0.000000 0.959431 -0.396337
v 0.000000 -1.000000 -0.396337
v -1.337670 -1.000000 -0.396337
v -1.337670 0.959431 -0.396337
v 1.337670 0.959431 -0.396337
v 1.337670 -1.000000 -0.396337
v 3.000000 1.000000 1.000000
v 3.000000 -1.000000 1.000000
v -3.000000 1.000000 1.000000
v -3.000000 -1.000000 1.000000
v 2.675339 -1.000000 1.000000
v -2.675339 -1.000000 1.000000
v -2.675339 1.000000 1.000000
v 2.675339 1.000000 1.000000
v 2.675339 -1.000000 0.792674
v -2.675339 -1.000000 0.792674
v -2.675339 0.895629 0.792674
v 2.675339 0.895629 0.792674
v 2.394877 -0.900638 0.792674
v -2.394877 -0.900638 0.792674
v -2.394877 0.796268 0.792674
v 2.394877 0.796268 0.792674
v 0.000000 -1.000000 0.792674
v 0.000000 0.895629 0.792674
v 0.000000 -0.900638 0.792674
v 0.000000 0.796268 0.792674
v -1.337670 -1.000000 0.792674
v -1.197438 -0.900638 0.792674
v -1.337670 0.895629 0.792674
v -1.197438 0.796268 0.792674
v 1.337670 0.895629 0.792674
v 1.197438 0.796268 0.792674
v 1.337670 -1.000000 0.792674
v 1.197438 -0.900638 0.792674
v -1.197438 -0.900638 0.615539
v -2.394877 -0.900638 0.615539
v -2.394877 0.796268 0.615539
v 2.394877 0.796268 0.615539
v 2.394877 -0.900638 0.615539
v 1.197438 -0.900638 0.615539
v 0.000000 -0.900638 0.615539
v 0.000000 0.796268 0.615539
v 1.337670 0.895629 0.979619
v 2.675339 0.895629 0.979619
v 1.197438 0.796268 0.979619
v 2.394877 0.796268 0.979619
v -2.394877 0.796268 0.979619
v -2.675339 0.895629 0.979619
v -1.337670 0.895629 0.979619
v 0.000000 0.895629 0.979619
v -1.197438 0.796268 0.979619
v 0.000000 0.796268 0.979619
v -3.000000 1.000000 0.500000
v 3.000000 -1.000000 0.500000
v -3.000000 -1.000000 0.500000
v 3.000000 1.000000 0.500000
v -2.675339 -1.000000 0.500000
v 2.675339 -1.000000 0.500000
v 2.675339 1.000000 0.500000
v -2.675339 1.000000 0.500000
v -2.675339 -1.000000 0.396337
v 2.675339 -1.000000 0.396337
v 2.675339 0.959431 0.396337
v -2.675339 0.959431 0.396337
v 0.000000 0.959431 0.396337
v 0.000000 -1.000000 0.396337
v -1.337670 -1.000000 0.396337
v -1.337670 0.959431 0.396337
v 1.337670 0.959431 0.396337
v 1.337670 -1.000000 0.396337
vn -1.0000 -0.0000 -0.0000
vn -0.0000 -0.0000 -1.0000
vn 1.0000 -0.0000 -0.0000
vn -0.0000 1.0000 -0.0000
vn -0.0000 -1.0000 -0.0000
vn -0.3339 -0.9426 -0.0000
vn -0.8171 -0.5766 -0.0000
vn 0.8171 -0.5766 -0.0000
vn 0.3339 -0.9426 -0.0000
vn -0.0000 0.9873 -0.1589
vn -0.0000 -0.0000 1.0000
vn -0.0000 0.9873 0.1589
vt 0.625000 0.500000
vt 0.375000 0.500000
vt 0.625000 0.250000
vt 0.875000 0.500000
vt 0.375000 0.250000
vt 0.125000 0.500000
vt 0.375000 0.416667
vt 0.291667 0.500000
vt 0.375000 0.333333
vt 0.208333 0.500000
vt 0.625000 0.333333
vt 0.791667 0.500000
vt 0.625000 0.416667
vt 0.708333 0.500000
vt 0.375000 0.416667
vt 0.291667 0.500000
vt 0.375000 0.333333
vt 0.208333 0.500000
vt 0.625000 0.333333
vt 0.791667 0.500000
vt 0.625000 0.416667
vt 0.708333 0.500000
vt 0.291667 0.500000
vt 0.375000 0.416667
vt 0.208333 0.500000
vt 0.375000 0.333333
vt 0.625000 0.333333
vt 0.625000 0.416667
vt 0.250000 0.500000
vt 0.750000 0.500000
vt 0.250000 0.500000
vt 0.625000 0.375000
vt 0.229167 0.500000
vt 0.375000 0.354167
vt 0.229167 0.500000
vt 0.770833 0.500000
vt 0.625000 0.354167
vt 0.729167 0.500000
vt 0.625000 0.395833
vt 0.270833 0.500000
vt 0.270833 0.500000
vt 0.375000 0.395833
vt 0.125000 0.625000
vt 0.375000 0.125000
vt 0.625000 0.625000
vt 0.875000 0.625000
vt 0.625000 0.125000
vt 0.375000 0.625000
vt 0.208333 0.625000
vt 0.291667 0.625000
vt 0.708333 0.625000
vt 0.791667 0.625000
vt 0.208333 0.625000
vt 0.291667 0.625000
vt 0.708333 0.625000
vt 0.791667 0.625000
vt 0.750000 0.625000
vt 0.250000 0.625000
vt 0.229167 0.625000
vt 0.770833 0.625000
vt 0.729167 0.625000
vt 0.270833 0.625000
vt 0.375000 0.354167
vt 0.229167 0.500000
vt 0.208333 0.500000
vt 0.375000 0.333333
vt 0.625000 0.333333
vt 0.625000 0.416667
vt 0.291667 0.500000
vt 0.375000 0.416667
vt 0.270833 0.500000
vt 0.375000 0.395833
vt 0.375000 0.375000
vt 0.250000 0.500000
vt 0.625000 0.375000
vt 0.729167 0.500000
vt 0.708333 0.500000
vt 0.625000 0.416667
vt 0.729167 0.500000
vt 0.625000 0.395833
vt 0.708333 0.500000
vt 0.625000 0.416667
vt 0.791667 0.500000
vt 0.625000 0.333333
vt 0.625000 0.333333
vt 0.791667 0.500000
vt 0.770833 0.500000
vt 0.750000 0.500000
vt 0.770833 0.500000
vt 0.625000 0.354167
vt 0.750000 0.500000
vt 0.625000 0.375000
vt 0.875000 0.562500
vt 0.625000 0.187500
vt 0.375000 0.562500
vt 0.125000 0.562500
vt 0.375000 0.187500
vt 0.625000 0.562500
vt 0.208333 0.562500
vt 0.291667 0.562500
vt 0.708333 0.562500
vt 0.791667 0.562500
vt 0.208333 0.562500
vt 0.291667 0.562500
vt 0.708333 0.562500
vt 0.791667 0.562500
vt 0.750000 0.562500
vt 0.250000 0.562500
vt 0.229167 0.562500
vt 0.770833 0.562500
vt 0.729167 0.562500
vt 0.270833 0.562500
vt 0.625000 0.500000
vt 0.375000 0.500000
vt 0.625000 0.250000
vt 0.875000 0.500000
vt 0.375000 0.250000
vt 0.125000 0.500000
vt 0.375000 0.416667
vt 0.291667 0.500000
vt 0.375000 0.333333
vt 0.208333 0.500000
vt 0.625000 0.333333
vt 0.791667 0.500000
vt 0.625000 0.416667
vt 0.708333 0.500000
vt 0.375000 0.416667
vt 0.291667 0.500000
vt 0.375000 0.333333
vt 0.208333 0.500000
vt 0.625000 0.333333
vt 0.791667 0.500000
vt 0.625000 0.416667
vt 0.708333 0.500000
vt 0.291667 0.500000
vt 0.375000 0.416667
vt 0.208333 0.500000
vt 0.375000 0.333333
vt 0.625000 0.333333
vt 0.625000 0.416667
vt 0.250000 0.500000
vt 0.750000 0.500000
vt 0.250000 0.500000
vt 0.625000 0.375000
vt 0.229167 0.500000
vt 0.375000 0.354167
vt 0.229167 0.500000
vt 0.770833 0.500000
vt 0.625000 0.354167
vt 0.729167 0.500000
vt 0.625000 0.395833
vt 0.270833 0.500000
vt 0.270833 0.500000
vt 0.375000 0.395833
vt 0.375000 0.354167
vt 0.229167 0.500000
vt 0.208333 0.500000
vt 0.375000 0.333333
vt 0.625000 0.333333
vt 0.625000 0.416667
vt 0.291667 0.500000
vt 0.375000 0.416667
vt 0.270833 0.500000
vt 0.375000 0.395833
vt 0.375000 0.375000
vt 0.250000 0.500000
vt 0.625000 0.375000
vt 0.729167 0.500000
vt 0.708333 0.500000
vt 0.625000 0.416667
vt 0.729167 0.500000
vt 0.625000 0.395833
vt 0.708333 0.500000
vt 0.625000 0.416667
vt 0.791667 0.500000
vt 0.625000 0.333333
vt 0.625000 0.333333
vt 0.791667 0.500000
vt 0.770833 0.500000
vt 0.750000 0.500000
vt 0.770833 0.500000
vt 0.625000 0.354167
vt 0.750000 0.500000
vt 0.625000 0.375000
vt 0.875000 0.562500
vt 0.625000 0.187500
vt 0.375000 0.562500
vt 0.125000 0.562500
vt 0.375000 0.187500
vt 0.625000 0.562500
vt 0.208333 0.562500
vt 0.291667 0.562500
vt 0.708333 0.562500
vt 0.791667 0.562500
vt 0.208333 0.562500
vt 0.291667 0.562500
vt 0.708333 0.562500
vt 0.791667 0.562500
vt 0.750000 0.562500
vt 0.250000 0.562500
vt 0.229167 0.562500
vt 0.770833 0.562500
vt 0.729167 0.562500
vt 0.270833 0.562500
s 0
usemtl Material
f 67/97/1 65/94/1 3/3/1 4/5/1
f 5/7/2 8/13/2 1/1/2 2/2/2
f 4/5/2 3/3/2 7/11/2 6/9/2
f 6/9/3 7/11/3 11/19/3 10/17/3
f 69/99/4 6/10/4 10/18/4 73/103/4
f 71/101/1 8/14/1 12/22/1 75/105/1
f 21/33/2 10/18/2 14/25/2 22/35/2
f 8/13/1 5/7/1 9/15/1 12/21/1
f 28/42/2 26/39/2 16/28/2
f 12/21/2 9/15/2 13/24/2 16/28/2
f 16/28/5 26/39/5 57/80/5 58/82/5
f 10/17/2 11/19/2 15/27/2 14/26/2
f 20/32/5 24/37/5 63/90/5 64/92/5
f 22/34/2 24/37/2 20/32/2
f 27/40/2 17/29/2 19/31/2 28/41/2
f 13/23/4 28/41/4 52/71/4 51/69/4
f 15/27/6 11/19/6 60/85/6 59/84/6
f 17/29/2 21/33/2 22/35/2 19/31/2
f 9/16/2 27/40/2 28/41/2 13/23/2
f 11/20/4 23/36/4 61/87/4 60/86/4
f 15/27/7 22/34/7 47/63/7 49/67/7
f 28/42/2 20/32/2 26/39/2
f 22/35/4 14/25/4 48/65/4 47/64/4
f 22/34/2 15/27/2 24/37/2
f 28/41/4 19/31/4 53/74/4 52/71/4
f 78/108/5 82/112/5 46/62/5 42/58/5
f 75/105/4 81/111/4 45/61/4 39/55/4
f 77/107/4 80/110/4 44/60/4 41/57/4
f 73/103/5 79/109/5 43/59/5 37/53/5
f 79/109/5 78/108/5 42/58/5 43/59/5
f 81/111/4 77/107/4 41/57/4 45/61/4
f 70/100/4 34/50/4 38/54/4 74/104/4
f 72/102/3 36/52/3 40/56/3 76/106/3
f 80/110/4 76/106/4 40/56/4 44/60/4
f 82/112/5 74/104/5 38/54/5 46/62/5
f 68/98/4 71/101/4 35/51/4 30/45/4
f 67/96/5 69/99/5 33/49/5 29/43/5
f 66/95/3 68/98/3 30/45/3 32/48/3
f 70/100/5 66/95/5 32/48/5 34/50/5
f 72/102/4 65/93/4 31/46/4 36/52/4
f 48/66/2 49/67/2 47/63/2
f 53/73/2 54/75/2 52/72/2
f 50/68/2 51/70/2 52/72/2
f 54/75/2 53/73/2 47/63/2
f 22/34/8 20/32/8 54/75/8 47/63/8
f 20/32/7 28/42/7 52/72/7 54/75/7
f 14/26/3 15/27/3 49/67/3 48/66/3
f 19/31/4 22/35/4 47/64/4 53/74/4
f 28/42/8 16/28/8 50/68/8 52/72/8
f 16/28/1 13/24/1 51/70/1 50/68/1
f 55/76/2 56/77/2 58/81/2 57/79/2
f 61/87/2 62/88/2 64/91/2 63/89/2
f 60/86/2 61/87/2 63/89/2 59/83/2
f 62/88/2 55/76/2 57/79/2 64/91/2
f 24/37/5 15/27/5 59/84/5 63/90/5
f 18/30/4 25/38/4 55/76/4 62/88/4
f 25/38/4 12/22/4 56/77/4 55/76/4
f 23/36/4 18/30/4 62/88/4 61/87/4
f 26/39/5 20/32/5 64/92/5 57/80/5
f 12/21/9 16/28/9 58/82/9 56/78/9
f 7/12/4 3/4/4 65/93/4 72/102/4
f 5/8/5 2/2/5 66/95/5 70/100/5
f 2/2/3 1/1/3 68/98/3 66/95/3
f 4/6/5 6/10/5 69/99/5 67/96/5
f 1/1/4 8/14/4 71/101/4 68/98/4
f 27/40/5 9/16/5 74/104/5 82/112/5
f 23/36/10 11/20/10 76/106/10 80/110/10
f 7/12/3 72/102/3 76/106/3 11/20/3
f 5/8/4 70/100/4 74/104/4 9/16/4
f 25/38/10 18/30/10 77/107/10 81/111/10
f 21/33/5 17/29/5 78/108/5 79/109/5
f 10/18/5 21/33/5 79/109/5 73/103/5
f 18/30/10 23/36/10 80/110/10 77/107/10
f 12/22/10 25/38/10 81/111/10 75/105/10
f 17/29/5 27/40/5 82/112/5 78/108/5
f 35/51/1 71/101/1 75/105/1 39/55/1
f 33/49/4 69/99/4 73/103/4 37/53/4
f 29/44/1 31/47/1 65/94/1 67/97/1
f 131/189/1 86/117/1 85/115/1 129/186/1
f 87/119/11 84/114/11 83/113/11 90/125/11
f 86/117/11 88/121/11 89/123/11 85/115/11
f 88/121/3 92/129/3 93/131/3 89/123/3
f 133/191/4 137/195/4 92/130/4 88/122/4
f 135/193/1 139/197/1 94/134/1 90/126/1
f 103/145/11 104/147/11 96/137/11 92/130/11
f 90/125/1 94/133/1 91/127/1 87/119/1
f 110/154/11 98/140/11 108/151/11
f 94/133/11 98/140/11 95/136/11 91/127/11
f 98/140/5 122/174/5 121/172/5 108/151/5
f 92/129/11 96/138/11 97/139/11 93/131/11
f 102/144/5 128/184/5 127/182/5 106/149/5
f 104/146/11 102/144/11 106/149/11
f 109/152/11 110/153/11 101/143/11 99/141/11
f 95/135/4 115/161/4 116/163/4 110/153/4
f 97/139/6 123/176/6 124/177/6 93/131/6
f 99/141/11 101/143/11 104/147/11 103/145/11
f 91/128/11 95/135/11 110/153/11 109/152/11
f 93/132/4 124/178/4 125/179/4 105/148/4
f 97/139/7 113/159/7 111/155/7 104/146/7
f 110/154/11 108/151/11 102/144/11
f 104/147/4 111/156/4 112/157/4 96/137/4
f 104/146/11 106/149/11 97/139/11
f 110/153/4 116/163/4 117/166/4 101/143/4
f 142/200/5 42/58/5 46/62/5 146/204/5
f 139/197/4 39/55/4 45/61/4 145/203/4
f 141/199/4 41/57/4 44/60/4 144/202/4
f 137/195/5 37/53/5 43/59/5 143/201/5
f 143/201/5 43/59/5 42/58/5 142/200/5
f 145/203/4 45/61/4 41/57/4 141/199/4
f 134/192/4 138/196/4 38/54/4 34/50/4
f 136/194/3 140/198/3 40/56/3 36/52/3
f 144/202/4 44/60/4 40/56/4 140/198/4
f 146/204/5 46/62/5 38/54/5 138/196/5
f 132/190/4 30/45/4 35/51/4 135/193/4
f 131/188/5 29/43/5 33/49/5 133/191/5
f 130/187/3 32/48/3 30/45/3 132/190/3
f 134/192/5 34/50/5 32/48/5 130/187/5
f 136/194/4 36/52/4 31/46/4 129/185/4
f 112/158/11 111/155/11 113/159/11
f 117/165/11 116/164/11 118/167/11
f 114/160/11 116/164/11 115/162/11
f 118/167/11 111/155/11 117/165/11
f 104/146/8 111/155/8 118/167/8 102/144/8
f 102/144/7 118/167/7 116/164/7 110/154/7
f 96/138/3 112/158/3 113/159/3 97/139/3
f 101/143/4 117/166/4 111/156/4 104/147/4
f 110/154/8 116/164/8 114/160/8 98/140/8
f 98/140/1 114/160/1 115/162/1 95/136/1
f 119/168/11 121/171/11 122/173/11 120/169/11
f 125/179/11 127/181/11 128/183/11 126/180/11
f 124/178/11 123/175/11 127/181/11 125/179/11
f 126/180/11 128/183/11 121/171/11 119/168/11
f 106/149/5 127/182/5 123/176/5 97/139/5
f 100/142/4 126/180/4 119/168/4 107/150/4
f 107/150/4 119/168/4 120/169/4 94/134/4
f 105/148/4 125/179/4 126/180/4 100/142/4
f 108/151/5 121/172/5 128/184/5 102/144/5
f 94/133/9 120/170/9 122/174/9 98/140/9
f 89/124/4 136/194/4 129/185/4 85/116/4
f 87/120/5 134/192/5 130/187/5 84/114/5
f 84/114/3 130/187/3 132/190/3 83/113/3
f 86/118/5 131/188/5 133/191/5 88/122/5
f 83/113/4 132/190/4 135/193/4 90/126/4
f 109/152/5 146/204/5 138/196/5 91/128/5
f 105/148/12 144/202/12 140/198/12 93/132/12
f 89/124/3 93/132/3 140/198/3 136/194/3
f 87/120/4 91/128/4 138/196/4 134/192/4
f 107/150/12 145/203/12 141/199/12 100/142/12
f 103/145/5 143/201/5 142/200/5 99/141/5
f 92/130/5 137/195/5 143/201/5 103/145/5
f 100/142/12 141/199/12 144/202/12 105/148/12
f 94/134/12 139/197/12 145/203/12 107/150/12
f 99/141/5 142/200/5 146/204/5 109/152/5
f 35/51/1 39/55/1 139/197/1 135/193/1
f 33/49/4 37/53/4 137/195/4 133/191/4
f 29/44/1 131/189/1 129/186/1 31/47/1
